<svg width="39" height="38" viewBox="0 0 39 38" fill="none" xmlns="http://www.w3.org/2000/svg">
<path d="M19.5044 9.25728C13.9708 9.25728 9.50747 13.6072 9.50747 19C9.50747 24.3928 13.9708 28.7427 19.5044 28.7427C25.0379 28.7427 29.5012 24.3928 29.5012 19C29.5012 13.6072 25.0379 9.25728 19.5044 9.25728ZM19.5044 25.334C15.9284 25.334 13.0051 22.4935 13.0051 19C13.0051 15.5065 15.9197 12.666 19.5044 12.666C23.089 12.666 26.0036 15.5065 26.0036 19C26.0036 22.4935 23.0803 25.334 19.5044 25.334ZM32.2419 8.85875C32.2419 10.1222 31.1978 11.1312 29.9102 11.1312C28.6138 11.1312 27.5784 10.1137 27.5784 8.85875C27.5784 7.60382 28.6225 6.5863 29.9102 6.5863C31.1978 6.5863 32.2419 7.60382 32.2419 8.85875ZM38.863 11.1651C38.7151 8.12105 38.0016 5.42463 35.7134 3.20306C33.4339 0.981479 30.6671 0.286177 27.5436 0.133549C24.3244 -0.0445163 14.6756 -0.0445163 11.4564 0.133549C8.34161 0.277697 5.57485 0.973 3.28661 3.19458C0.998383 5.41616 0.293642 8.11257 0.137033 11.1566C-0.0456776 14.294 -0.0456776 23.6975 0.137033 26.8349C0.284941 29.8789 0.998383 32.5754 3.28661 34.7969C5.57485 37.0185 8.33291 37.7138 11.4564 37.8665C14.6756 38.0445 24.3244 38.0445 27.5436 37.8665C30.6671 37.7223 33.4339 37.027 35.7134 34.7969C37.9929 32.5754 38.7064 29.8789 38.863 26.8349C39.0457 23.6975 39.0457 14.3025 38.863 11.1651ZM34.7041 30.2012C34.0255 31.8631 32.7117 33.1435 30.9977 33.8133C28.4311 34.8054 22.3407 34.5765 19.5044 34.5765C16.668 34.5765 10.5689 34.7969 8.01099 33.8133C6.30569 33.152 4.99191 31.8716 4.30457 30.2012C3.28661 27.6998 3.52153 21.7643 3.52153 19C3.52153 16.2357 3.29532 10.2918 4.30457 7.79884C4.98321 6.1369 6.29699 4.85652 8.01099 4.18666C10.5776 3.19458 16.668 3.42352 19.5044 3.42352C22.3407 3.42352 28.4398 3.20306 30.9977 4.18666C32.703 4.84804 34.0168 6.12842 34.7041 7.79884C35.7221 10.3002 35.4872 16.2357 35.4872 19C35.4872 21.7643 35.7221 27.7082 34.7041 30.2012Z" fill="white"/>
</svg>
