<?xml version="1.0" encoding="utf-8"?>
<!-- Generator: Adobe Illustrator 27.5.0, SVG Export Plug-In . SVG Version: 6.00 Build 0)  -->
<svg version="1.1" id="圖層_1" xmlns="http://www.w3.org/2000/svg" xmlns:xlink="http://www.w3.org/1999/xlink" x="0px" y="0px"
	 viewBox="0 0 193 51" style="enable-background:new 0 0 193 51;" xml:space="preserve">
<style type="text/css">
	.st0{clip-path:url(#SVGID_00000026143124004943670600000003680852352683755197_);}
	.st1{fill:#FFFFFF;}
</style>
<g>
	<defs>
		<rect id="SVGID_1_" y="0" width="193" height="50.5"/>
	</defs>
	<clipPath id="SVGID_00000021109045837404136390000004343065775711972286_">
		<use xlink:href="#SVGID_1_"  style="overflow:visible;"/>
	</clipPath>
	<g style="clip-path:url(#SVGID_00000021109045837404136390000004343065775711972286_);">
		<path class="st1" d="M73.2,15.1H58v16.4h15.1V15.1z"/>
		<path class="st1" d="M73.2,0H58v31.5h15.1V0z"/>
		<path class="st1" d="M104.1,16.5H88.7V33h15.5V16.5z"/>
		<path class="st1" d="M104.1,0H88.7v33h15.5V0z"/>
		<path class="st1" d="M135.2,16.1h-15.5v16.1h15.5V16.1z"/>
		<path class="st1" d="M135.2,0h-15.5v27.9h15.5V0z"/>
		<path class="st1" d="M115.8,31h19.4c0,10.7-8.7,19.4-19.4,19.4"/>
		<path class="st1" d="M115.8,50.5c-10.7,0-19.4-8.7-19.4-19.4h19.4"/>
		<path class="st1" d="M77.4,31h19.4c0,10.7-8.7,19.4-19.4,19.4"/>
		<path class="st1" d="M77.4,50.5C66.7,50.5,58,41.7,58,31h19.4"/>
		<path class="st1" d="M88,40.5c0,5.2-4.9,9.5-11,9.5s-11-4.3-11-9.5S70.9,31,77,31S88,35.3,88,40.5z"/>
		<path class="st1" d="M127,40.5c0,5.2-4.9,9.5-11,9.5s-11-4.3-11-9.5s4.9-9.5,11-9.5S127,35.3,127,40.5z"/>
		<path class="st1" d="M159,0h-16v50h16V0z"/>
		<path class="st1" d="M160,0h-17v51h17V0z"/>
		<path class="st1" d="M160,0h-17v52h17V0z"/>
		<path class="st1" d="M193,16.5h-16.8V33H193V16.5z"/>
		<path class="st1" d="M193,0h-17v35.3h17V0z"/>
		<path class="st1" d="M176.3,33.6h-16.8c0,9.3,7.5,16.8,16.8,16.8"/>
		<path class="st1" d="M176.3,50.5c9.3,0,16.8-7.5,16.8-16.8h-16.8"/>
		<path class="st1" d="M187,42c0,4.4-4.9,8-11,8s-11-3.6-11-8s4.9-8,11-8S187,37.6,187,42z"/>
		<path class="st1" d="M34,50h16v-60H34V50z"/>
		<path class="st1" d="M34,52h16V-3H34V52z"/>
		<path class="st1" d="M34,50h16V0H34V50z"/>
		<path class="st1" d="M0,32.7h16.8V16.4H0V32.7z"/>
		<path class="st1" d="M0,35h17V0H0V35z"/>
		<path class="st1" d="M16.8,33.6h16.8c0,9.3-7.5,16.8-16.8,16.8"/>
		<path class="st1" d="M16.8,50.5C7.5,50.5,0,42.9,0,33.6h16.8"/>
		<path class="st1" d="M25,42c0,4.4-3.6,8-8,8s-8-3.6-8-8s3.6-8,8-8S25,37.6,25,42z"/>
	</g>
</g>
</svg>
