<svg width="42" height="29" viewBox="0 0 42 29" fill="none" xmlns="http://www.w3.org/2000/svg">
<path d="M41.1224 4.53752C40.6393 2.75145 39.2161 1.3448 37.4091 0.867432C34.1338 0 21 0 21 0C21 0 7.8663 0 4.59087 0.867432C2.78386 1.34488 1.36067 2.75145 0.877631 4.53752C0 7.77487 0 14.5293 0 14.5293C0 14.5293 0 21.2837 0.877631 24.5211C1.36067 26.3072 2.78386 27.6552 4.59087 28.1326C7.8663 29 21 29 21 29C21 29 34.1337 29 37.4091 28.1326C39.2161 27.6552 40.6393 26.3072 41.1224 24.5211C42 21.2837 42 14.5293 42 14.5293C42 14.5293 42 7.77487 41.1224 4.53752ZM16.7045 20.6618V8.39678L27.6817 14.5295L16.7045 20.6618Z" fill="white"/>
</svg>
